<svg xmlns="http://www.w3.org/2000/svg" xmlns:xlink="http://www.w3.org/1999/xlink" viewBox="0 0 501.78 463.47"><defs><style>.cls-1,.cls-5{fill:none;}.cls-2{clip-path:url(#clip-path);}.cls-3{opacity:0.08;}.cls-4{clip-path:url(#clip-path-3);}.cls-5{stroke:#000;}.cls-6{clip-path:url(#clip-path-4);}.cls-7{clip-path:url(#clip-path-5);}.cls-8{clip-path:url(#clip-path-6);}.cls-9{clip-path:url(#clip-path-7);}.cls-10{clip-path:url(#clip-path-8);}.cls-11{clip-path:url(#clip-path-9);}.cls-12{clip-path:url(#clip-path-10);}.cls-13{clip-path:url(#clip-path-11);}.cls-14{clip-path:url(#clip-path-12);}.cls-15{clip-path:url(#clip-path-13);}.cls-16{clip-path:url(#clip-path-14);}.cls-17{clip-path:url(#clip-path-15);}.cls-18{clip-path:url(#clip-path-16);}</style><clipPath id="clip-path" transform="translate(-0.55 -0.5)"><rect class="cls-1" width="502.88" height="464.46"/></clipPath><clipPath id="clip-path-3" transform="translate(-0.55 -0.5)"><rect class="cls-1" x="231.88" y="131.48" width="181.52" height="161.36"/></clipPath><clipPath id="clip-path-4" transform="translate(-0.55 -0.5)"><rect class="cls-1" x="198.81" y="158.67" width="181.52" height="165.35"/></clipPath><clipPath id="clip-path-5" transform="translate(-0.55 -0.5)"><rect class="cls-1" x="123.91" y="203.2" width="181.52" height="161.36"/></clipPath><clipPath id="clip-path-6" transform="translate(-0.55 -0.5)"><rect class="cls-1" x="90.84" y="234.37" width="181.52" height="161.36"/></clipPath><clipPath id="clip-path-7" transform="translate(-0.55 -0.5)"><rect class="cls-1" x="15.14" y="273.92" width="181.52" height="161.36"/></clipPath><clipPath id="clip-path-8" transform="translate(-0.55 -0.5)"><rect class="cls-1" x="-17.93" y="305.09" width="181.52" height="161.36"/></clipPath><clipPath id="clip-path-9" transform="translate(-0.55 -0.5)"><rect class="cls-1" x="339.3" y="59.76" width="181.52" height="161.36"/></clipPath><clipPath id="clip-path-10" transform="translate(-0.55 -0.5)"><rect class="cls-1" x="306.23" y="90.94" width="181.52" height="161.36"/></clipPath><clipPath id="clip-path-11" transform="translate(-0.55 -0.5)"><rect class="cls-1" x="123.91" y="59.76" width="181.52" height="161.36"/></clipPath><clipPath id="clip-path-12" transform="translate(-0.55 -0.5)"><rect class="cls-1" x="90.84" y="90.94" width="181.52" height="161.36"/></clipPath><clipPath id="clip-path-13" transform="translate(-0.55 -0.5)"><rect class="cls-1" x="231.49" y="-11.55" width="181.52" height="161.36"/></clipPath><clipPath id="clip-path-14" transform="translate(-0.55 -0.5)"><rect class="cls-1" x="198.42" y="19.62" width="181.52" height="161.36"/></clipPath><clipPath id="clip-path-15" transform="translate(-0.55 -0.5)"><rect class="cls-1" x="16.73" y="-13.94" width="181.52" height="161.36"/></clipPath><clipPath id="clip-path-16" transform="translate(-0.55 -0.5)"><rect class="cls-1" x="-16.34" y="17.23" width="181.52" height="161.36"/></clipPath></defs><g id="Layer_2" data-name="Layer 2"><g id="Layer_1-2" data-name="Layer 1"><g class="cls-2"><g class="cls-2"><g class="cls-3"><g class="cls-4"><polygon class="cls-5" points="357.95 145.93 286.23 145.93 250.37 217.64 286.23 289.36 357.95 289.36 393.81 217.64 357.95 145.93"/></g></g><g class="cls-3"><g class="cls-6"><polygon class="cls-5" points="324.88 177.1 253.16 177.1 217.3 248.82 253.16 320.54 324.88 320.54 360.74 248.82 324.88 177.1"/></g></g><g class="cls-3"><g class="cls-7"><polygon class="cls-5" points="249.97 217.64 178.26 217.64 142.4 289.36 178.26 361.07 249.97 361.07 285.83 289.36 249.97 217.64"/></g></g><g class="cls-3"><g class="cls-8"><polygon class="cls-5" points="216.9 248.82 145.19 248.82 109.33 320.54 145.19 392.25 216.9 392.25 252.76 320.54 216.9 248.82"/></g></g><g class="cls-3"><g class="cls-9"><polygon class="cls-5" points="141.2 288.36 69.49 288.36 33.63 360.08 69.49 431.8 141.2 431.8 177.06 360.08 141.2 288.36"/></g></g><g class="cls-3"><g class="cls-10"><polygon class="cls-5" points="108.13 319.54 36.42 319.54 0.56 391.26 36.42 462.97 108.13 462.97 143.99 391.26 108.13 319.54"/></g></g><g class="cls-3"><g class="cls-11"><polygon class="cls-5" points="465.36 74.21 393.64 74.21 357.78 145.93 393.64 217.64 465.36 217.64 501.22 145.93 465.36 74.21"/></g></g><g class="cls-3"><g class="cls-12"><polygon class="cls-5" points="432.29 105.39 360.57 105.39 324.71 177.1 360.57 248.82 432.29 248.82 468.15 177.1 432.29 105.39"/></g></g><g class="cls-3"><g class="cls-13"><polygon class="cls-5" points="249.97 74.21 178.26 74.21 142.4 145.93 178.26 217.64 249.97 217.64 285.83 145.93 249.97 74.21"/></g></g><g class="cls-3"><g class="cls-14"><polygon class="cls-5" points="216.9 105.39 145.19 105.39 109.33 177.1 145.19 248.82 216.9 248.82 252.76 177.1 216.9 105.39"/></g></g><g class="cls-3"><g class="cls-15"><polygon class="cls-5" points="357.55 2.89 285.83 2.89 249.97 74.61 285.83 146.32 357.55 146.32 393.41 74.61 357.55 2.89"/></g></g><g class="cls-3"><g class="cls-16"><polygon class="cls-5" points="324.48 34.07 252.76 34.07 216.9 105.78 252.76 177.5 324.48 177.5 360.34 105.78 324.48 34.07"/></g></g><g class="cls-3"><g class="cls-17"><polygon class="cls-5" points="142.8 0.5 71.08 0.5 35.22 72.22 71.08 143.93 142.8 143.93 178.66 72.22 142.8 0.5"/></g></g><g class="cls-3"><g class="cls-18"><polygon class="cls-5" points="109.73 31.68 38.01 31.68 2.15 103.39 38.01 175.11 109.73 175.11 145.59 103.39 109.73 31.68"/></g></g></g></g></g></g></svg>